<svg id="Слой_1" data-name="Слой 1" xmlns="http://www.w3.org/2000/svg" viewBox="0 0 83.66 8.54">
    <defs>
        <style>.cls-1{fill:#44476a;}</style>
    </defs>
    <g id="title">
        <rect class="cls-1" x="77.18" y="6.55" width="6.48" height="1.78"/>
        <rect class="cls-1" x="77.18" y="3.33" width="6.48" height="1.72"/>
        <rect class="cls-1" x="77.18" y="0.16" width="6.48" height="1.84"/>
        <polygon class="cls-1" points="76.28 6.5 76.28 8.33 70.07 8.33 70.07 0.16 72.38 0.16 72.38 6.5 76.28 6.5"/>
        <path class="cls-1"
              d="M61.83,7.51a3.76,3.76,0,0,1-1-2.82V.16h2.31V4.62c0,1.35.52,2,1.55,2s1.54-.69,1.54-2V.16h2.26V4.69a3.76,3.76,0,0,1-1,2.82A4.54,4.54,0,0,1,61.83,7.51Z"
              transform="translate(0.01 0)"/>
        <path class="cls-1"
              d="M59.11,2.08a4.18,4.18,0,0,1,.57,2.16,4.09,4.09,0,0,1-.57,2.16A3.75,3.75,0,0,1,57.5,7.82a5.28,5.28,0,0,1-2.38.5H51.25v-4h2.31V6.48H55a2.35,2.35,0,0,0,1.68-.6,2.16,2.16,0,0,0,.65-1.64,2.21,2.21,0,0,0-.65-1.65A2.35,2.35,0,0,0,55,2H51.25V.16h3.87A5.6,5.6,0,0,1,57.5.67,3.85,3.85,0,0,1,59.11,2.08Z"
              transform="translate(0.01 0)"/>
        <rect class="cls-1" x="43.42" y="6.55" width="6.48" height="1.78"/>
        <rect class="cls-1" x="43.42" y="3.33" width="6.48" height="1.72"/>
        <rect class="cls-1" x="43.42" y="0.16" width="6.48" height="1.84"/>
        <polygon class="cls-1"
                 points="39.47 3.23 39.47 0.16 41.78 0.16 41.79 8.33 39.48 8.33 39.48 5.15 36.33 5.15 36.33 8.33 34.01 8.33 34.01 0.16 36.32 0.16 36.32 3.23 39.47 3.23"/>
        <path class="cls-1"
              d="M25,4.25a4.15,4.15,0,0,1,.56-2.2,4,4,0,0,1,1.6-1.5A4.89,4.89,0,0,1,29.47,0a5.07,5.07,0,0,1,2,.4A4,4,0,0,1,33,1.54l-1.51,1.3a2.43,2.43,0,0,0-3.11-.66,2,2,0,0,0-.81.82,2.55,2.55,0,0,0-.28,1.3,2.48,2.48,0,0,0,.28,1.22,2,2,0,0,0,.81.82,2.33,2.33,0,0,0,1.19.29,2.41,2.41,0,0,0,1.92-1L33,7a3.83,3.83,0,0,1-1.53,1.14A5.24,5.24,0,0,1,27.14,8a3.9,3.9,0,0,1-1.56-1.56A4,4,0,0,1,25,4.25Z"
              transform="translate(0.01 0)"/>
        <path class="cls-1"
              d="M20.44,5.16a11.68,11.68,0,0,1-1.54-.42A2.46,2.46,0,0,1,17.84,4a1.9,1.9,0,0,1-.46-1.31,2.21,2.21,0,0,1,.41-1.34A2.69,2.69,0,0,1,19,.35,5.09,5.09,0,0,1,21,0a7.14,7.14,0,0,1,1.6.19A4.73,4.73,0,0,1,24,.71l-.73,1.71A4.75,4.75,0,0,0,21,1.79,1.83,1.83,0,0,0,20,2a.6.6,0,0,0-.31.51.5.5,0,0,0,.37.49,5.15,5.15,0,0,0,1.21.32,11.72,11.72,0,0,1,1.54.43,2.8,2.8,0,0,1,1.06.73,1.88,1.88,0,0,1,.46,1.34,2.35,2.35,0,0,1-.41,1.33,2.9,2.9,0,0,1-1.22,1,5.09,5.09,0,0,1-2,.35,7.33,7.33,0,0,1-1.92-.25,4.46,4.46,0,0,1-1.52-.65L18,5.89a4.39,4.39,0,0,0,1.25.56,4.89,4.89,0,0,0,1.42.22C21.56,6.67,22,6.45,22,6a.54.54,0,0,0-.34-.48A6.34,6.34,0,0,0,20.44,5.16Z"
              transform="translate(0.01 0)"/>
        <path class="cls-1"
              d="M13.9,2.32A1.6,1.6,0,0,0,12.83,2H9.23V.16H13a4.63,4.63,0,0,1,1.9.43,3,3,0,0,1,1.26,1,2.93,2.93,0,0,1,.47,1.65,2.93,2.93,0,0,1-.44,1.6,3.09,3.09,0,0,1-1.26,1A4.9,4.9,0,0,1,13,6.2H11.55V8.4H9.23v-4h3.6a1.59,1.59,0,0,0,1.07-.31,1.1,1.1,0,0,0,.37-.88A1.12,1.12,0,0,0,13.9,2.32Z"
              transform="translate(0.01 0)"/>
        <path class="cls-1"
              d="M7.67,4.69a3.76,3.76,0,0,1-1,2.82,3.87,3.87,0,0,1-2.83,1A3.91,3.91,0,0,1,1,7.51,3.76,3.76,0,0,1,0,4.69V.16H2.31V4.62c0,1.35.52,2,1.55,2s1.54-.69,1.54-2V.16H7.67Z"
              transform="translate(0.01 0)"/>
    </g>
</svg>