<svg id="Слой_1" data-name="Слой 1" xmlns="http://www.w3.org/2000/svg" viewBox="0 0 83.65 8.5">
    <defs>
        <style>
            .cls-1{fill:#bed6d2;}.cls-2{fill:#b4d5d2;}.cls-3{fill:#aad4d3;}.cls-4{fill:#a1d3d3;}.cls-5{fill:#97d2d4;}.cls-6{fill:#8dd2d4;}.cls-7{fill:#83d1d5;}.cls-8{fill:#7ad0d5;}.cls-9{fill:#70cfd6;}.cls-10{fill:#66ced6;}
        </style>
    </defs>
    <g id="title">
        <path id="path111418" class="cls-1"
              d="M1,7.51a3.91,3.91,0,0,0,2.84,1,3.89,3.89,0,0,0,2.83-1,3.78,3.78,0,0,0,1-2.82V.16H5.4V4.62c0,1.31-.51,2-1.54,2s-1.55-.65-1.55-2V.16H0V4.69A3.78,3.78,0,0,0,1,7.51Z"/>
        <path id="path111420" class="cls-2"
              d="M16.16,1.59a3,3,0,0,0-1.26-1A4.61,4.61,0,0,0,13,.16H9.23V2h3.6a1.59,1.59,0,0,1,1.07.32,1.13,1.13,0,0,1,.37.89,1.11,1.11,0,0,1-.37.88,1.59,1.59,0,0,1-1.07.31H9.23v4h2.32V6.2H13a4.78,4.78,0,0,0,1.93-.36,3.1,3.1,0,0,0,1.26-1,2.88,2.88,0,0,0,.44-1.6A2.91,2.91,0,0,0,16.16,1.59Z"/>
        <path id="path111422" class="cls-3"
              d="M18.78,8.25a7.17,7.17,0,0,0,1.92.25,5.17,5.17,0,0,0,2-.35,2.91,2.91,0,0,0,1.22-1,2.32,2.32,0,0,0,.41-1.33,1.86,1.86,0,0,0-.46-1.34,2.77,2.77,0,0,0-1.06-.73,12.79,12.79,0,0,0-1.54-.43A5.19,5.19,0,0,1,20.06,3a.5.5,0,0,1-.37-.49A.6.6,0,0,1,20,2a1.84,1.84,0,0,1,1-.21,4.79,4.79,0,0,1,2.27.63L24,.71A4.71,4.71,0,0,0,22.6.19,7,7,0,0,0,21,0a5.08,5.08,0,0,0-2,.35,2.69,2.69,0,0,0-1.21,1,2.26,2.26,0,0,0-.41,1.34A1.91,1.91,0,0,0,17.84,4a2.46,2.46,0,0,0,1.06.74,11.73,11.73,0,0,0,1.54.42,7,7,0,0,1,1.22.36A.54.54,0,0,1,22,6c0,.45-.44.67-1.33.67a4.77,4.77,0,0,1-1.42-.22A4.25,4.25,0,0,1,18,5.89L17.26,7.6a4.38,4.38,0,0,0,1.52.65Z"/>
        <path id="path111424" class="cls-4"
              d="M27.14,8a5.25,5.25,0,0,0,4.33.14A3.82,3.82,0,0,0,33,7L31.49,5.63a2.42,2.42,0,0,1-1.92,1,2.33,2.33,0,0,1-1.19-.29,2,2,0,0,1-.81-.82,2.5,2.5,0,0,1-.28-1.22A2.55,2.55,0,0,1,27.57,3a2,2,0,0,1,.81-.82,2.44,2.44,0,0,1,3.11.66L33,1.54A4,4,0,0,0,31.47.4a5.06,5.06,0,0,0-2-.4,4.87,4.87,0,0,0-2.31.55,4,4,0,0,0-1.6,1.5A4.11,4.11,0,0,0,25,4.25a4,4,0,0,0,.58,2.19A3.91,3.91,0,0,0,27.14,8Z"/>
        <path id="path111426" class="cls-5" d="M41.77.16H39.46V3.23H36.31V.16H34V8.33h2.32V5.15h3.15V8.33h2.31Z"/>
        <path id="path111428" class="cls-6"
              d="M49.89.16H43.41V2h6.48Zm0,3.17H43.41V5.05h6.48ZM43.41,6.55V8.33h6.48V6.55Z"/>
        <path id="path111430" class="cls-7"
              d="M59.11,2.09A3.84,3.84,0,0,0,57.5.67,5.54,5.54,0,0,0,55.12.16H51.25V2H55a2.37,2.37,0,0,1,1.68.59,2.21,2.21,0,0,1,.65,1.65,2.14,2.14,0,0,1-.65,1.64,2.33,2.33,0,0,1-1.68.6H53.56V4.32H51.25v4h3.87a5.4,5.4,0,0,0,2.38-.5,3.71,3.71,0,0,0,1.61-1.42,4.09,4.09,0,0,0,.57-2.16,4.14,4.14,0,0,0-.57-2.16Z"/>
        <path id="path111432" class="cls-8"
              d="M61.83,7.51a4.54,4.54,0,0,0,5.66,0,3.75,3.75,0,0,0,1-2.82V.16H66.23V4.62c0,1.31-.51,2-1.54,2s-1.55-.65-1.55-2V.16H60.83V4.69a3.74,3.74,0,0,0,1,2.82Z"/>
        <path id="path111434" class="cls-9" d="M70.06.16V8.33h6.21V6.5h-3.9V.16Z"/>
        <path id="path111436" class="cls-10"
              d="M83.65.16H77.17V2h6.48Zm0,3.17H77.17V5.05h6.48ZM77.17,6.55V8.33h6.48V6.55Z"/>
    </g>
</svg>